# lamp shade frustum, generated by scripts/gen_lamp_shade_mesh.py
v 0.015000 0.000000 0.000000
v 0.014489 0.003882 0.000000
v 0.012990 0.007500 0.000000
v 0.010607 0.010607 0.000000
v 0.007500 0.012990 0.000000
v 0.003882 0.014489 0.000000
v 0.000000 0.015000 0.000000
v -0.003882 0.014489 0.000000
v -0.007500 0.012990 0.000000
v -0.010607 0.010607 0.000000
v -0.012990 0.007500 0.000000
v -0.014489 0.003882 0.000000
v -0.015000 0.000000 0.000000
v -0.014489 -0.003882 0.000000
v -0.012990 -0.007500 0.000000
v -0.010607 -0.010607 0.000000
v -0.007500 -0.012990 0.000000
v -0.003882 -0.014489 0.000000
v -0.000000 -0.015000 0.000000
v 0.003882 -0.014489 0.000000
v 0.007500 -0.012990 0.000000
v 0.010607 -0.010607 0.000000
v 0.012990 -0.007500 0.000000
v 0.014489 -0.003882 0.000000
v 0.027500 0.000000 0.060000
v 0.026563 0.007118 0.060000
v 0.023816 0.013750 0.060000
v 0.019445 0.019445 0.060000
v 0.013750 0.023816 0.060000
v 0.007118 0.026563 0.060000
v 0.000000 0.027500 0.060000
v -0.007118 0.026563 0.060000
v -0.013750 0.023816 0.060000
v -0.019445 0.019445 0.060000
v -0.023816 0.013750 0.060000
v -0.026563 0.007118 0.060000
v -0.027500 0.000000 0.060000
v -0.026563 -0.007118 0.060000
v -0.023816 -0.013750 0.060000
v -0.019445 -0.019445 0.060000
v -0.013750 -0.023816 0.060000
v -0.007118 -0.026563 0.060000
v -0.000000 -0.027500 0.060000
v 0.007118 -0.026563 0.060000
v 0.013750 -0.023816 0.060000
v 0.019445 -0.019445 0.060000
v 0.023816 -0.013750 0.060000
v 0.026563 -0.007118 0.060000
f 1 25 26
f 1 26 2
f 2 26 27
f 2 27 3
f 3 27 28
f 3 28 4
f 4 28 29
f 4 29 5
f 5 29 30
f 5 30 6
f 6 30 31
f 6 31 7
f 7 31 32
f 7 32 8
f 8 32 33
f 8 33 9
f 9 33 34
f 9 34 10
f 10 34 35
f 10 35 11
f 11 35 36
f 11 36 12
f 12 36 37
f 12 37 13
f 13 37 38
f 13 38 14
f 14 38 39
f 14 39 15
f 15 39 40
f 15 40 16
f 16 40 41
f 16 41 17
f 17 41 42
f 17 42 18
f 18 42 43
f 18 43 19
f 19 43 44
f 19 44 20
f 20 44 45
f 20 45 21
f 21 45 46
f 21 46 22
f 22 46 47
f 22 47 23
f 23 47 48
f 23 48 24
f 24 48 25
f 24 25 1
